<svg width="24" height="24" viewBox="0 0 24 24" fill="none" xmlns="http://www.w3.org/2000/svg">
    <path
            d="M12 0C8.8174 0 5.76515 1.26428 3.51472 3.51472C1.26428 5.76515 0 8.8174 0 12L0 24H12C15.1826 24 18.2348 22.7357 20.4853 20.4853C22.7357 18.2348 24 15.1826 24 12C24 8.8174 22.7357 5.76515 20.4853 3.51472C18.2348 1.26428 15.1826 0 12 0ZM15.4434 15.9556C14.9581 16.4421 14.3814 16.8279 13.7466 17.0909C13.1117 17.3538 12.4311 17.4887 11.7439 17.4878H6.5122V12.2561C6.51224 11.3958 6.72446 10.5487 7.13005 9.78997C7.53564 9.03124 8.12209 8.38424 8.83745 7.90628C9.55281 7.42832 10.375 7.13416 11.2312 7.04985C12.0874 6.96553 12.9512 7.09367 13.746 7.42292C14.5409 7.75216 15.2423 8.27235 15.7881 8.9374C16.3339 9.60245 16.7072 10.3918 16.8751 11.2356C17.0429 12.0794 17.0001 12.9516 16.7504 13.7749C16.5007 14.5982 16.0517 15.3472 15.4434 15.9556Z"
            fill="#004EC2"
    />
</svg>