<svg height="75" viewBox="0 0 100 67" fill="none" xmlns="http://www.w3.org/2000/svg">
  <path d="M50 0C46.4776 0 43.0994 1.37857 40.6087 3.83245C38.118 6.28633 36.7188 9.6145 36.7188 13.0848V26.1696H50C53.5224 26.1696 56.9005 24.791 59.3912 22.3372C61.882 19.8833 63.2812 16.5551 63.2812 13.0848C63.2812 9.6145 61.882 6.28633 59.3912 3.83245C56.9005 1.37857 53.5224 0 50 0V0ZM53.8111 17.398C53.2739 17.9285 52.6357 18.3492 51.933 18.6359C51.2304 18.9226 50.4771 19.0697 49.7165 19.0687H43.9263V13.3641C43.9263 12.4259 44.1612 11.5023 44.6101 10.675C45.059 9.84766 45.708 9.14217 46.4998 8.62101C47.2915 8.09984 48.2015 7.77909 49.1491 7.68716C50.0967 7.59522 51.0527 7.73495 51.9324 8.09395C52.8121 8.45296 53.5884 9.02017 54.1925 9.74534C54.7966 10.4705 55.2098 11.3313 55.3956 12.2513C55.5813 13.1714 55.5339 14.1225 55.2576 15.0202C54.9812 15.9179 54.4843 16.7346 53.8111 17.398V17.398Z" fill="currentColor" />
  <path d="M15.4685 66.3035H11.5455V64.8247C10.7116 65.8582 9.10699 66.609 7.13214 66.609C6.17202 66.6366 5.21669 66.4671 4.32818 66.1115C3.43967 65.756 2.63787 65.2223 1.97485 64.5452C0.658282 63.1779 0 61.3633 0 59.1012C0 56.8391 0.658282 55.0234 1.97485 53.654C2.63825 52.9764 3.44059 52.4425 4.32971 52.0869C5.21883 51.7314 6.1748 51.5621 7.13548 51.5902C8.9969 51.5902 10.4013 52.0907 11.3187 53.1242V44.6089H15.4719L15.4685 66.3035ZM4.23658 59.1012C4.23658 61.6395 5.66768 63.0923 7.81933 63.0923C9.91094 63.0923 11.3153 61.724 11.3153 59.4067V58.7567C11.3153 56.4978 9.91094 55.071 7.81933 55.071C5.66768 55.0775 4.23658 56.5596 4.23658 59.1012Z" fill="currentColor" />
  <path d="M31.7776 64.5451C30.3165 65.9134 28.425 66.6089 26.1333 66.6089C23.8415 66.6089 21.9467 65.9134 20.4623 64.5451C18.9778 63.1768 18.2539 61.334 18.2539 59.1011C18.2539 56.8683 18.9878 55.0092 20.4589 53.6539C21.9301 52.2986 23.8382 51.5901 26.1299 51.5901C28.4217 51.5901 30.3132 52.2856 31.7743 53.6539C33.2354 55.0222 34.0093 56.839 34.0093 59.1011C34.0093 61.3632 33.2688 63.1345 31.7776 64.5451ZM26.1333 55.0775C25.638 55.0586 25.1446 55.1467 24.6884 55.3355C24.2322 55.5243 23.8245 55.8091 23.4946 56.1695C22.8274 56.865 22.4938 57.8433 22.4938 59.0946C22.4938 60.3459 22.8274 61.3275 23.4946 62.0197C24.1953 62.6987 25.1434 63.0798 26.1316 63.0798C27.1199 63.0798 28.0679 62.6987 28.7686 62.0197C29.4358 61.321 29.7694 60.3427 29.7694 59.0946C29.7694 57.8466 29.4358 56.8585 28.7686 56.1695C28.4393 55.8093 28.0322 55.5247 27.5765 55.3359C27.1209 55.1471 26.628 55.0588 26.1333 55.0775V55.0775Z" fill="currentColor" />
  <path d="M40.9481 57.0049L45.7351 51.8697H50.809L45.218 58.0449L51.2227 66.31H46.1354L42.2691 61.0838L40.9348 62.4781V66.3035H36.7649V44.6089H40.9481V57.0049Z" fill="currentColor" />
  <path d="M65.8538 60.3851H55.6827C55.7694 62.1986 56.9169 63.3102 58.7784 63.3102C60.2695 63.3102 61.1869 62.7804 61.5005 61.7176L65.7137 61.9126C65.581 62.6012 65.3055 63.2561 64.9039 63.8373C64.5024 64.4185 63.9834 64.9138 63.3786 65.2927C62.0579 66.1774 60.4839 66.6325 58.8818 66.5928C56.5867 66.5928 54.7253 65.9233 53.3209 64.555C51.9164 63.1867 51.2292 61.3731 51.2292 59.085C51.2292 56.7969 51.9164 54.9509 53.3209 53.6118C54.7253 52.2728 56.53 51.574 58.765 51.574C60.9133 51.574 62.6335 52.2153 63.9256 53.498C65.2133 54.7558 65.8438 56.5142 65.8438 58.747L65.8538 60.3851ZM55.6827 57.6745H61.6439C61.5572 55.8609 60.5831 54.7721 58.7517 54.7721C56.9203 54.7721 55.7961 55.8609 55.6827 57.6745Z" fill="currentColor" />
  <path d="M83.2802 66.3035H79.3672V64.8247C78.5366 65.8582 76.9287 66.609 74.9538 66.609C73.9932 66.6368 73.0373 66.4675 72.1482 66.1119C71.2591 65.7563 70.4567 65.2225 69.7932 64.5451C68.4766 63.1779 67.8184 61.3633 67.8184 59.1012C67.8184 56.8391 68.4766 55.0234 69.7932 53.654C70.4567 52.9766 71.2591 52.4428 72.1482 52.0872C73.0373 51.7317 73.9932 51.5623 74.9538 51.5902C76.8153 51.5902 78.2197 52.0907 79.137 53.1242V44.6089H83.2936L83.2802 66.3035ZM72.0449 59.1012C72.0449 61.6395 73.4794 63.0923 75.6277 63.0923C77.7193 63.0923 79.1237 61.724 79.1237 59.4067V58.7567C79.1237 56.4978 77.7193 55.071 75.6277 55.071C73.4794 55.0775 72.0449 56.5596 72.0449 59.1012Z" fill="currentColor" />
  <path d="M99.9867 66.3034H96.047V64.8506C95.3031 66.0239 94.0121 66.6089 92.2074 66.6089C88.7947 66.6089 86.7332 64.4899 86.7332 60.944V51.8696H90.9164V60.0762C90.9164 61.893 91.7203 62.8128 93.2949 62.8128C94.8694 62.8128 95.8168 61.698 95.8168 60.0209V51.8696H100L99.9867 66.3034Z" fill="currentColor" />
</svg>
