<svg width="401" height="71" viewBox="0 0 401 71" fill="none" xmlns="http://www.w3.org/2000/svg">
<path d="M144.406 66.0607H132.637V61.5577C130.135 64.7049 125.321 66.991 119.396 66.991C116.516 67.075 113.65 66.5589 110.985 65.4762C108.319 64.3935 105.914 62.7685 103.925 60.7066C99.9748 56.5434 98 51.0177 98 44.1295C98 37.2414 99.9748 31.7124 103.925 27.5426C105.915 25.4795 108.322 23.8536 110.989 22.7709C113.656 21.6882 116.524 21.1728 119.406 21.2582C124.991 21.2582 129.204 22.7823 131.956 25.9294V0H144.416L144.406 66.0607ZM110.71 44.1295C110.71 51.8589 115.003 56.2827 121.458 56.2827C127.733 56.2827 131.946 52.1162 131.946 45.0598V43.0805C131.946 36.2023 127.733 31.8576 121.458 31.8576C115.003 31.8774 110.71 36.3903 110.71 44.1295Z" fill="black"/>
<path d="M193.333 60.7066C188.949 64.8731 183.275 66.991 176.4 66.991C169.525 66.991 163.84 64.8731 159.387 60.7066C154.933 56.54 152.762 50.9286 152.762 44.1295C152.762 37.3305 154.963 31.6695 159.377 27.5426C163.79 23.4157 169.515 21.2582 176.39 21.2582C183.265 21.2582 188.939 23.3761 193.323 27.5426C197.706 31.7091 200.028 37.2414 200.028 44.1295C200.028 51.0177 197.806 56.4114 193.333 60.7066ZM176.4 31.8774C174.914 31.8198 173.434 32.0881 172.065 32.663C170.696 33.2379 169.473 34.1052 168.484 35.2027C166.482 37.3206 165.481 40.2995 165.481 44.1097C165.481 47.92 166.482 50.9088 168.484 53.0168C170.586 55.0843 173.43 56.2448 176.395 56.2448C179.36 56.2448 182.204 55.0843 184.306 53.0168C186.307 50.889 187.308 47.9101 187.308 44.1097C187.308 40.3094 186.307 37.3008 184.306 35.2027C183.318 34.106 182.096 33.2391 180.73 32.6642C179.363 32.0893 177.884 31.8206 176.4 31.8774Z" fill="black"/>
<path d="M220.844 37.7462L235.205 22.1093H250.427L233.654 40.9131L251.668 66.0805H236.406L224.807 50.1666L220.804 54.4123V66.0607H208.294V0H220.844V37.7462Z" fill="black"/>
<path d="M295.562 48.0387H265.049C265.309 53.561 268.752 56.9457 274.336 56.9457C278.809 56.9457 281.561 55.3326 282.502 52.0963L295.142 52.6901C294.744 54.7868 293.917 56.7812 292.713 58.551C291.508 60.3208 289.951 61.8288 288.136 62.9827C284.175 65.6767 279.453 67.0623 274.646 66.9414C267.761 66.9414 262.177 64.9027 257.963 60.7362C253.75 56.5697 251.688 51.0473 251.688 44.08C251.688 37.1127 253.75 31.4913 257.963 27.4139C262.177 23.3364 267.591 21.2086 274.296 21.2086C280.741 21.2086 285.901 23.1616 289.778 27.0675C293.641 30.8975 295.532 36.2517 295.532 43.0507L295.562 48.0387ZM265.049 39.7848H282.932C282.672 34.2624 279.75 30.947 274.256 30.947C268.762 30.947 265.389 34.2624 265.049 39.7848Z" fill="black"/>
<path d="M347.841 66.0607H336.102V61.5577C333.61 64.7049 328.787 66.991 322.862 66.991C319.98 67.0758 317.113 66.5601 314.445 65.4774C311.778 64.3947 309.371 62.7692 307.38 60.7066C303.431 56.5434 301.456 51.0177 301.456 44.1295C301.456 37.2414 303.431 31.7124 307.38 27.5426C309.371 25.48 311.778 23.8545 314.445 22.7718C317.113 21.6891 319.98 21.1734 322.862 21.2582C328.446 21.2582 332.66 22.7823 335.412 25.9294V0H347.881L347.841 66.0607ZM314.136 44.1295C314.136 51.8589 318.439 56.2827 324.884 56.2827C331.159 56.2827 335.372 52.1162 335.372 45.0598V43.0805C335.372 36.2023 331.159 31.8576 324.884 31.8576C318.439 31.8774 314.136 36.3903 314.136 44.1295Z" fill="black"/>
<path d="M397.96 66.0608H386.141V61.6369C383.909 65.2097 380.036 66.9911 374.622 66.9911C364.384 66.9911 358.199 60.5384 358.199 49.7411V22.1094H370.749V47.0986C370.749 52.6309 373.161 55.4317 377.884 55.4317C382.608 55.4317 385.45 52.0371 385.45 46.9304V22.1094H398L397.96 66.0608Z" fill="black"/>
<path d="M34 2C24.9826 2 16.3346 5.58213 9.95837 11.9584C3.58213 18.3346 0 26.9826 0 36L0 70H34C43.0174 70 51.6654 66.4179 58.0416 60.0416C64.4179 53.6654 68 45.0174 68 36C68 26.9826 64.4179 18.3346 58.0416 11.9584C51.6654 5.58213 43.0174 2 34 2V2ZM43.7563 47.2076C42.3813 48.586 40.7474 49.6792 38.9486 50.4242C37.1497 51.1692 35.2214 51.5514 33.2744 51.5488H18.4512V36.7256C18.4513 34.288 19.0526 31.888 20.2018 29.7383C21.351 27.5885 23.0126 25.7553 25.0394 24.4011C27.0663 23.0469 29.3958 22.2134 31.8217 21.9746C34.2476 21.7357 36.695 22.0987 38.9471 23.0316C41.1991 23.9645 43.1864 25.4383 44.7328 27.3226C46.2792 29.2069 47.3371 31.4435 47.8127 33.8343C48.2883 36.2251 48.1669 38.6963 47.4594 41.029C46.7518 43.3616 45.4799 45.4838 43.7563 47.2076Z" fill="black"/>
</svg>
